<?xml version="1.0" encoding="utf-8"?>
<!-- Generator: Adobe Illustrator 23.0.4, SVG Export Plug-In . SVG Version: 6.00 Build 0)  -->
<svg version="1.1" id="Layer_1" xmlns="http://www.w3.org/2000/svg" xmlns:xlink="http://www.w3.org/1999/xlink" x="0px" y="0px"
	 viewBox="0 0 160.92 209.25" style="enable-background:new 0 0 160.92 209.25;" xml:space="preserve">
<style type="text/css">
	.st0{fill:none;stroke:#262626;stroke-width:7;stroke-linecap:round;stroke-linejoin:round;stroke-miterlimit:10;}
	.st1{fill:#F28B0E;}
	.st2{fill:#F28B0E;stroke:#F28B0E;stroke-linecap:round;stroke-linejoin:round;stroke-miterlimit:10;}
	.st3{fill:#262626;}
	.st4{font-size:20px;}
</style>
<polyline class="st0" points="58.23,3.87 35.82,3.87 3.74,44.69 "/>
<polyline class="st0" points="3.74,44.69 35.68,84.36 55.74,84.36 104.39,3.87 124.03,3.87 157.24,43.55 "/>
<polyline class="st0" points="103.71,84.36 125.7,84.36 157.24,43.55 "/>
<g>
	<path class="st1" d="M80.49,12.01c0.38,0.74,0.68,1.48,1.02,2.22l0.9,2.22c0.59,1.48,1.12,2.97,1.61,4.45
		c-0.07,2.96-0.02,5.93-0.04,8.89l0,17.79l0,17.79l-0.01,2.11c0.01,0.65,0.04,1.31,0.09,1.94c0.06,0.62,0.14,1.23,0.26,1.73
		c0.07,0.24,0.11,0.47,0.2,0.61c0.04,0.05,0.11,0.14,0.13,0.13c0.01,0.01,0.01,0.03,0,0.05c-0.01-0.01-0.05-0.01-0.08-0.01
		c-0.03,0.02-0.08,0.01-0.14-0.02c-0.06-0.03-0.11-0.01-0.2-0.05c-0.18-0.07-0.37-0.1-0.63-0.14c-0.49-0.05-0.89,0.21-0.83,0.33
		c0,0.03,0,0.09,0.03,0.11l0.12,0.04c0.08,0.05,0.2,0.04,0.33,0.02c0.25,0,0.57-0.12,0.88-0.2c0.64-0.24,1.32-0.57,1.98-0.95
		c0.7-0.36,1.35-0.8,2.07-1.21c-0.25,1.62-0.62,3.19-1.41,4.83c-0.24,0.41-0.43,0.83-0.8,1.25c-0.16,0.21-0.34,0.42-0.59,0.63
		l-0.37,0.31c-0.13,0.1-0.32,0.2-0.49,0.3c-0.62,0.4-1.81,0.69-2.99,0.4c-0.62-0.14-1.11-0.39-1.58-0.69
		c-0.23-0.15-0.39-0.28-0.58-0.44c-0.2-0.16-0.36-0.32-0.49-0.45c-0.13-0.15-0.28-0.3-0.39-0.47c-0.1-0.14-0.18-0.29-0.26-0.45
		c-0.16-0.32-0.22-0.59-0.31-0.88c-0.17-0.55-0.32-1.03-0.43-1.51c-0.22-0.94-0.33-1.81-0.41-2.66c-0.08-0.85-0.11-1.67-0.12-2.5
		l0.01-2.33l0-17.74l0-17.74c-0.02-2.96,0.03-5.91-0.04-8.87c0.49-1.48,1.02-2.95,1.61-4.43l0.9-2.22
		C79.81,13.49,80.11,12.75,80.49,12.01z"/>
</g>
<rect x="81.75" y="71.43" transform="matrix(0.6523 0.758 -0.758 0.6523 83.9919 -37.6601)" class="st2" width="2.58" height="2.58"/>
<path class="st0" d="M88.2,98.69"/>
<path class="st0" d="M61.75-17.95"/>
<text style="font-family: 'Asap', sans-serif;" transform="matrix(0 -1 1 0 89.184 210.1814)"><tspan x="0" y="0" class="st3 st4">CHERYL  </tspan><tspan x="75.82" y="0" class="st1 st4">CAM</tspan></text>
</svg>
