<?xml version="1.0" encoding="utf-8"?>
<!-- Generator: Adobe Illustrator 23.0.4, SVG Export Plug-In . SVG Version: 6.00 Build 0)  -->
<svg version="1.1" id="Layer_1" xmlns="http://www.w3.org/2000/svg" xmlns:xlink="http://www.w3.org/1999/xlink" x="0px" y="0px"
	 viewBox="0 0 50 50" style="enable-background:new 0 0 50 50;" xml:space="preserve">
<style type="text/css">
	.st0{fill:#FFFFFF;}
</style>
<path class="st0" d="M32.14,46.52h-0.2l-0.2-0.2v-1.22v-5.1c0-1.43-0.2-2.65-0.82-3.67c4.69-0.82,9.79-3.26,9.79-12.44
	c0-2.45-0.82-4.69-2.24-6.53c0.41-1.22,0.61-3.47-0.41-6.32l-0.61-0.61c0,0-0.41-0.2-0.82-0.2c-1.22,0-3.06,0.41-6.12,2.45
	c-1.63-0.2-3.47-0.61-5.51-0.61s-3.88,0.2-5.71,0.61c-2.86-1.84-4.9-2.24-6.12-2.24c-0.41,0-0.61,0.2-0.82,0.2
	c-0.2,0-0.61,0.41-0.61,0.61c-1.02,2.86-0.82,5.1-0.41,6.32c-1.43,1.84-2.24,4.08-2.24,6.53c0,8.97,5.3,11.42,9.79,12.44
	c-0.2,0.41-0.41,1.02-0.61,1.63c-0.41,0.2-1.02,0.41-1.84,0.41c-0.82,0-1.63-0.2-2.24-0.82l-0.2-0.2c-0.2-0.2-0.2-0.41-0.41-0.41
	l-0.2-0.2l-0.2-0.2c0-0.2-1.63-2.65-4.49-2.86c-1.02,0-1.84,0.41-2.04,1.02c-0.41,1.02,0.82,1.84,1.43,2.24c0,0,1.22,0.61,2.04,2.86
	c0.41,1.43,2.24,4.08,6.53,4.08h1.43v2.86l-0.2,0.2c0,0-0.2,0,0,0c-9.18-3.67-15.3-12.24-15.3-21.83C2.56,12.86,12.56,2.87,25,2.87
	s22.44,9.99,22.44,22.44C47.44,34.89,41.32,43.46,32.14,46.52z"/>
</svg>
