<?xml version="1.0" encoding="utf-8"?>
<!-- Generator: Adobe Illustrator 23.0.4, SVG Export Plug-In . SVG Version: 6.00 Build 0)  -->
<svg version="1.1" id="Layer_1" xmlns="http://www.w3.org/2000/svg" xmlns:xlink="http://www.w3.org/1999/xlink" x="0px" y="0px"
	 viewBox="0 0 50 50" style="enable-background:new 0 0 50 50;" xml:space="preserve">
<style type="text/css">
	.st0{fill:#FFFFFF;}
</style>
<g>
	<g>
		<path class="st0" d="M14.14,9.7c0,1.69-1.26,3.13-3.4,3.13c-2.03,0-3.29-1.44-3.29-3.13c0-1.72,1.3-3.13,3.35-3.13
			C12.86,6.57,14.11,7.96,14.14,9.7z M7.82,38.5V16.1h5.92v22.4H7.82z"/>
		<path class="st0" d="M20.38,22.88c0-2.61-0.07-4.85-0.18-6.78h5.18l0.29,3.6h0.14c0.97-1.72,3.57-4.16,7.75-4.16
			c3.96,0,8.71,2.39,8.71,10.1V38.5h-5.92V26.39c0-3.54-1.42-6.08-4.83-6.08c-2.6,0-4.31,1.81-4.96,3.52
			c-0.18,0.45-0.26,1.13-0.26,1.72V38.5h-5.92V22.88z"/>
	</g>
</g>
</svg>
